<?xml version="1.0" encoding="utf-8"?>
<!-- Generator: Adobe Illustrator 19.0.0, SVG Export Plug-In . SVG Version: 6.00 Build 0)  -->
<svg version="1.1" id="layer" xmlns="http://www.w3.org/2000/svg" xmlns:xlink="http://www.w3.org/1999/xlink" x="0px" y="0px"
	 viewBox="-153 -46 652 652" style="enable-background:new -153 -46 652 652;" xml:space="preserve">
<style type="text/css">
	.st0{fill:#112B6D;}
</style>
<path class="st0" d="M130.8,229.3h11.8l-14,73.9c-1.5,7.4-6.1,10.6-12.5,10.6c-6.1,0-11.3-2.9-12.8-12.3l-9.8-63.8
	c-0.2-1.2-1-1.7-1.7-1.7c-1,0-1.7,0.7-1.7,1.7l-10.1,65.5c-1.2,7.4-6.4,10.3-12.3,10.3c-5.7,0-11.3-3.4-13-12L40.3,229h12l13.3,74.6
	c0.2,1.2,0.7,1.7,1.7,1.7c1,0,1.7-0.5,2-2l10.1-64.5c1.5-8.6,6.6-11.3,12-11.3c5.4,0,11.3,2.7,12.5,11.3l10.1,64.5c0.2,1.5,1,2,2,2
	c1,0,1.7-0.7,1.7-1.7L130.8,229.3z M181.4,249.4c15,0,21.6,11,21.6,25.5v37.3h-10.3v-34.8c0-12-3.7-18.9-13.5-18.9
	c-9.1,0-16.2,6.9-16.2,20.1v33.6h-10.3v-82.9H163v30.9C165.7,254.1,172.3,249.4,181.4,249.4z M224.7,242.5c-4.2,0-7.4-2.9-7.4-7.4
	c0-4.4,3.2-7.4,7.4-7.4c4.2,0,7.4,2.9,7.4,7.4C232.1,239.3,229.1,242.5,224.7,242.5z M233.3,303.9c-1.5,0-2.2-0.5-2.2-2.2h-0.2
	v-39.5c0-7.6-3.7-11.3-12.3-11.3h-8.6v8.6h8.6c1.5,0,2.2,0.5,2.2,2.2v39.3c0,7.6,3.7,11.3,12.3,11.3h9.1v-8.3H233.3z M272.4,258.5
	c-8.4,0-13,4.2-13,8.6c0,3.9,2.5,6.6,8.6,7.6l12,2c9.3,1.7,18.7,5.9,18.7,17.4c0,12-11.1,19.4-25.6,19.4
	c-15.7,0-25.6-10.1-26.1-21.3h11.1c1.2,7.9,6.6,12.5,15.7,12.5c9.1,0,14.3-4.4,14.3-10.3c0-4.9-3.4-7.4-10.3-8.6l-11.8-2
	c-10.1-1.7-17-7.4-17-16.4c0-11.8,11.1-17.9,24.3-17.9c12.5,0,23.1,7.4,24.6,19.1h-10.8C285.6,262.2,280.5,258.5,272.4,258.5z
	 M339.5,249.6c-9.8,0-16.5,4.2-20.2,10.1v-9.1H309v82h10.3v-28.7c3.7,5.9,10.3,10.1,20.2,10.1c14,0,26.3-11.8,26.3-32.1
	C365.8,261.4,353.5,249.6,339.5,249.6z M354.7,281.5c0,14.7-7.4,22.6-17.9,22.6c-9.3,0-17.9-6.1-17.9-22.6
	c0-16.2,8.6-22.6,17.9-22.6C347.3,259,354.7,266.8,354.7,281.5z M419.6,294.5c-2.2,5.9-7.4,10.1-16,10.1c-9.1,0-17.9-6.1-18.7-18.4
	h34.9c7.6,0,12.3-2.7,12.3-9.8c0-13.5-11.6-26.5-28.5-26.5c-17.9,0-29.7,12.5-29.7,31.9c0,18.2,10.6,32.1,29.5,32.1
	c14.7,0,23.8-8.8,27.3-19.4H419.6z M419.4,277.4h-34.2c0.7-11.3,7.1-18.9,18.4-18.9c11.3,0,18.2,9.8,18.2,16.9
	C421.8,276.9,420.8,277.4,419.4,277.4z M472.2,259.9c-14.3,0-19.4,6.9-19.4,18.2v34.1h-10.3v-61.6h10.1v10.8
	c2.5-6.4,8.4-11.8,18.2-11.8c1.2,0,1.7,0,3.2,0v10.1h-1.7V259.9z M-92.4,295c5.2,0,9.3,4.2,9.3,9.3s-4.2,9.3-9.3,9.3
	c-5.2,0-9.3-4.2-9.3-9.3S-97.6,295-92.4,295z M-44.2,295c5.2,0,9.3,4.2,9.3,9.3s-4.2,9.3-9.3,9.3s-9.3-4.2-9.3-9.3
	S-49.4,295-44.2,295z M-116.7,227.6c5.2,0,9.3,4.2,9.3,9.3c0,5.1-4.2,9.3-9.3,9.3c-5.2,0-9.3-4.2-9.3-9.3
	C-126.1,231.7-121.9,227.6-116.7,227.6z M-68.3,227.6c5.2,0,9.3,4.2,9.3,9.3c0,5.1-4.2,9.3-9.3,9.3c-5.2,0-9.3-4.2-9.3-9.3
	C-77.7,231.7-73.5,227.6-68.3,227.6z M-19.9,227.6c5.2,0,9.3,4.2,9.3,9.3c0,5.1-4.2,9.3-9.3,9.3c-5.2,0-9.3-4.2-9.3-9.3
	C-29.2,231.7-25,227.6-19.9,227.6z"/>
</svg>
